<?xml version="1.0" encoding="UTF-8" standalone="no"?>
<!DOCTYPE svg PUBLIC "-//W3C//DTD SVG 1.1//EN" "http://www.w3.org/Graphics/SVG/1.1/DTD/svg11.dtd">
<svg width="100%" height="100%" viewBox="0 0 222 31" version="1.1" xmlns="http://www.w3.org/2000/svg" xmlns:xlink="http://www.w3.org/1999/xlink" xml:space="preserve" xmlns:serif="http://www.serif.com/" style="fill-rule:evenodd;clip-rule:evenodd;stroke-linejoin:round;stroke-miterlimit:2;">
    <g id="Artboard1" transform="matrix(0.94863,0,0,0.653179,-31.972,-83.5327)">
        <rect x="33.703" y="127.886" width="233.393" height="46.092" style="fill:none;"/>
        <clipPath id="_clip1">
            <rect x="33.703" y="127.886" width="233.393" height="46.092"/>
        </clipPath>
        <g clip-path="url(#_clip1)">
            <g transform="matrix(1.05415,0,0,1.53097,235.96,136.178)">
                <clipPath id="_clip2">
                    <rect x="-230.995" y="-140.408" width="300" height="300"/>
                </clipPath>
                <g clip-path="url(#_clip2)">
                    <rect x="0" y="0" width="300" height="300" style="fill:white;fill-opacity:0;"/>
                </g>
            </g>
            <g id="_4b18b919-1a95-45f3-aa40-3fc44dd32120" serif:id="4b18b919-1a95-45f3-aa40-3fc44dd32120" transform="matrix(1.96296,0,0,2.85086,75.1089,128.17)">
                <path d="M0.84,12.75L5.75,4.54C5.783,4.493 5.797,4.463 5.79,4.45C5.783,4.43 5.747,4.42 5.68,4.42C4.62,4.42 3.81,4.46 3.25,4.54C2.697,4.62 2.243,4.79 1.89,5.05C1.537,5.303 1.23,5.7 0.97,6.24C0.957,6.253 0.937,6.26 0.91,6.26C0.823,6.26 0.787,6.24 0.8,6.2L1.36,3.77C1.36,3.757 1.377,3.75 1.41,3.75C1.503,3.75 1.543,3.763 1.53,3.79C1.517,3.823 1.51,3.863 1.51,3.91C1.51,4.017 1.563,4.09 1.67,4.13C1.777,4.17 1.993,4.19 2.32,4.19L7.43,4.19C7.477,4.19 7.513,4.213 7.54,4.26C7.56,4.307 7.557,4.343 7.53,4.37L2.69,12.56C2.65,12.607 2.637,12.637 2.65,12.65C2.657,12.663 2.687,12.67 2.74,12.67L5.57,12.67C5.91,12.67 6.237,12.583 6.55,12.41C6.87,12.237 7.14,12.007 7.36,11.72C7.587,11.427 7.727,11.117 7.78,10.79C7.793,10.763 7.823,10.75 7.87,10.75C7.917,10.75 7.94,10.763 7.94,10.79L7.74,12.82C7.74,12.853 7.73,12.883 7.71,12.91C7.683,12.943 7.653,12.96 7.62,12.96C6.227,12.947 3.99,12.94 0.91,12.94C0.87,12.94 0.843,12.917 0.83,12.87C0.81,12.83 0.813,12.79 0.84,12.75ZM13.87,12.03L13.9,12.01C13.92,12.01 13.94,12.03 13.96,12.07C13.987,12.103 13.99,12.13 13.97,12.15C13.623,12.49 13.273,12.733 12.92,12.88C12.567,13.027 12.18,13.1 11.76,13.1C11.173,13.1 10.663,12.977 10.23,12.73C9.803,12.483 9.477,12.153 9.25,11.74C9.03,11.327 8.92,10.88 8.92,10.4C8.92,9.86 9.06,9.36 9.34,8.9C9.62,8.433 10.003,8.067 10.49,7.8C10.97,7.54 11.51,7.41 12.11,7.41C12.69,7.41 13.133,7.533 13.44,7.78C13.747,8.027 13.9,8.363 13.9,8.79C13.9,9.063 13.85,9.2 13.75,9.2L12.89,9.2L10.37,9.23C10.343,9.403 10.33,9.597 10.33,9.81C10.33,10.617 10.52,11.253 10.9,11.72C11.28,12.187 11.8,12.42 12.46,12.42C12.693,12.42 12.937,12.387 13.19,12.32C13.443,12.253 13.67,12.157 13.87,12.03ZM11.59,7.69C11.31,7.69 11.067,7.8 10.86,8.02C10.66,8.247 10.513,8.557 10.42,8.95L12.4,8.9C12.373,8.093 12.103,7.69 11.59,7.69ZM21.45,12.77C21.477,12.77 21.49,12.797 21.49,12.85C21.49,12.91 21.477,12.94 21.45,12.94C21.203,12.94 21.01,12.933 20.87,12.92L20.03,12.91L19.22,12.92C19.073,12.933 18.877,12.94 18.63,12.94C18.603,12.94 18.59,12.91 18.59,12.85C18.59,12.797 18.603,12.77 18.63,12.77C18.923,12.77 19.12,12.7 19.22,12.56C19.327,12.427 19.38,12.173 19.38,11.8L19.38,9.79C19.38,9.283 19.287,8.91 19.1,8.67C18.92,8.423 18.633,8.3 18.24,8.3C18.02,8.3 17.79,8.347 17.55,8.44C17.31,8.533 17.103,8.66 16.93,8.82L16.93,11.8C16.93,12.173 16.983,12.427 17.09,12.56C17.197,12.7 17.393,12.77 17.68,12.77C17.707,12.77 17.72,12.797 17.72,12.85C17.72,12.91 17.707,12.94 17.68,12.94C17.44,12.94 17.25,12.933 17.11,12.92L16.27,12.91L15.44,12.92C15.3,12.933 15.11,12.94 14.87,12.94C14.843,12.94 14.83,12.91 14.83,12.85C14.83,12.797 14.843,12.77 14.87,12.77C15.157,12.77 15.353,12.7 15.46,12.56C15.56,12.427 15.61,12.173 15.61,11.8L15.61,9.17C15.61,8.883 15.577,8.67 15.51,8.53C15.437,8.397 15.327,8.33 15.18,8.33C15.02,8.33 14.793,8.397 14.5,8.53L14.48,8.53C14.447,8.53 14.423,8.507 14.41,8.46C14.397,8.413 14.4,8.383 14.42,8.37L16.37,7.42C16.423,7.4 16.453,7.39 16.46,7.39C16.567,7.39 16.667,7.49 16.76,7.69C16.853,7.89 16.91,8.163 16.93,8.51C17.57,7.743 18.277,7.36 19.05,7.36C19.557,7.36 19.957,7.523 20.25,7.85C20.543,8.17 20.69,8.59 20.69,9.11L20.69,11.8C20.69,12.173 20.743,12.427 20.85,12.56C20.957,12.7 21.157,12.77 21.45,12.77ZM27.4,5.6C27.4,5.933 27.487,6.233 27.66,6.5C27.833,6.76 28.043,6.987 28.29,7.18C28.543,7.38 28.887,7.62 29.32,7.9C29.787,8.193 30.16,8.453 30.44,8.68C30.72,8.907 30.957,9.18 31.15,9.5C31.343,9.82 31.44,10.19 31.44,10.61C31.44,11.097 31.31,11.53 31.05,11.91C30.79,12.283 30.43,12.577 29.97,12.79C29.503,12.997 28.987,13.1 28.42,13.1C28,13.1 27.56,13.043 27.1,12.93C26.647,12.81 26.34,12.68 26.18,12.54C26.133,12.507 26.097,12.473 26.07,12.44C26.05,12.407 26.04,12.353 26.04,12.28L26,10.05L26,10.04C26,10 26.023,9.977 26.07,9.97C26.117,9.97 26.143,9.987 26.15,10.02C26.43,10.593 26.677,11.057 26.89,11.41C27.097,11.763 27.36,12.077 27.68,12.35C28.007,12.617 28.373,12.75 28.78,12.75C29.153,12.75 29.463,12.65 29.71,12.45C29.95,12.25 30.07,11.907 30.07,11.42C30.07,11.013 29.98,10.657 29.8,10.35C29.62,10.037 29.397,9.773 29.13,9.56C28.87,9.347 28.513,9.09 28.06,8.79C27.607,8.503 27.257,8.257 27.01,8.05C26.763,7.843 26.553,7.597 26.38,7.31C26.2,7.017 26.11,6.677 26.11,6.29C26.11,5.79 26.253,5.37 26.54,5.03C26.82,4.69 27.187,4.44 27.64,4.28C28.087,4.113 28.557,4.03 29.05,4.03C29.377,4.03 29.707,4.06 30.04,4.12C30.38,4.18 30.653,4.253 30.86,4.34C30.94,4.38 30.993,4.42 31.02,4.46C31.053,4.5 31.07,4.553 31.07,4.62L31.07,6.68C31.07,6.707 31.047,6.727 31,6.74C30.953,6.753 30.923,6.747 30.91,6.72L30.8,6.45C30.567,5.863 30.293,5.367 29.98,4.96C29.667,4.547 29.23,4.34 28.67,4.34C28.297,4.34 27.99,4.447 27.75,4.66C27.517,4.873 27.4,5.187 27.4,5.6ZM39.13,12.03L39.16,12.03C39.187,12.03 39.21,12.053 39.23,12.1C39.257,12.147 39.257,12.173 39.23,12.18L37.3,13.12C37.28,13.127 37.257,13.13 37.23,13.13C37.137,13.13 37.053,13.03 36.98,12.83C36.913,12.63 36.873,12.357 36.86,12.01C36.247,12.737 35.58,13.1 34.86,13.1C34.347,13.1 33.943,12.94 33.65,12.62C33.357,12.3 33.21,11.877 33.21,11.35L33.21,9.3C33.21,8.693 33.063,8.39 32.77,8.39C32.67,8.39 32.553,8.42 32.42,8.48L32.41,8.48C32.37,8.48 32.343,8.457 32.33,8.41C32.31,8.357 32.313,8.327 32.34,8.32L34.22,7.42L34.29,7.41C34.337,7.41 34.383,7.43 34.43,7.47C34.483,7.51 34.51,7.55 34.51,7.59L34.51,10.68C34.51,11.687 34.897,12.19 35.67,12.19C35.877,12.19 36.083,12.147 36.29,12.06C36.503,11.973 36.693,11.85 36.86,11.69L36.86,9.3C36.86,8.693 36.717,8.39 36.43,8.39C36.323,8.39 36.2,8.42 36.06,8.48L36.05,8.48C36.023,8.48 36,8.457 35.98,8.41C35.96,8.357 35.963,8.327 35.99,8.32L37.87,7.42C37.89,7.413 37.913,7.41 37.94,7.41C37.987,7.41 38.037,7.43 38.09,7.47C38.137,7.51 38.16,7.55 38.16,7.59L38.16,11.31C38.16,11.63 38.19,11.853 38.25,11.98C38.317,12.113 38.42,12.18 38.56,12.18C38.687,12.18 38.877,12.13 39.13,12.03ZM40.89,8.2C40.89,8.473 40.987,8.707 41.18,8.9C41.373,9.1 41.65,9.307 42.01,9.52C42.37,9.727 42.633,9.887 42.8,10C42.973,10.12 43.13,10.283 43.27,10.49C43.41,10.703 43.48,10.96 43.48,11.26C43.48,11.573 43.403,11.87 43.25,12.15C43.09,12.43 42.85,12.657 42.53,12.83C42.217,13.003 41.84,13.09 41.4,13.09C40.887,13.09 40.4,12.963 39.94,12.71C39.887,12.657 39.86,12.6 39.86,12.54L39.83,11.16C39.83,11.133 39.857,11.117 39.91,11.11C39.957,11.103 39.987,11.11 40,11.13C40.147,11.597 40.393,11.993 40.74,12.32C41.087,12.647 41.437,12.81 41.79,12.81C41.983,12.81 42.14,12.75 42.26,12.63C42.373,12.51 42.43,12.333 42.43,12.1C42.43,11.753 42.333,11.48 42.14,11.28C41.947,11.08 41.657,10.87 41.27,10.65C40.943,10.477 40.697,10.333 40.53,10.22C40.363,10.107 40.213,9.947 40.08,9.74C39.953,9.54 39.89,9.29 39.89,8.99C39.89,8.437 40.083,8.033 40.47,7.78C40.863,7.52 41.347,7.39 41.92,7.39C42.133,7.39 42.327,7.403 42.5,7.43C42.673,7.463 42.867,7.52 43.08,7.6C43.16,7.627 43.2,7.68 43.2,7.76C43.2,7.993 43.197,8.173 43.19,8.3L43.18,9C43.18,9.027 43.15,9.04 43.09,9.04C43.037,9.04 43.01,9.027 43.01,9C43.01,8.827 42.933,8.633 42.78,8.42C42.633,8.213 42.44,8.033 42.2,7.88C41.967,7.733 41.723,7.66 41.47,7.66C41.083,7.66 40.89,7.84 40.89,8.2ZM50.83,12.77C50.87,12.77 50.89,12.797 50.89,12.85C50.89,12.91 50.87,12.94 50.83,12.94C50.59,12.94 50.397,12.933 50.25,12.92L49.43,12.91L48.59,12.92C48.45,12.933 48.26,12.94 48.02,12.94C48,12.94 47.99,12.91 47.99,12.85C47.99,12.797 48,12.77 48.02,12.77C48.307,12.77 48.503,12.7 48.61,12.56C48.723,12.427 48.78,12.173 48.78,11.8L48.78,9.79C48.78,9.283 48.687,8.91 48.5,8.67C48.313,8.423 48.023,8.3 47.63,8.3C47.403,8.3 47.17,8.347 46.93,8.44C46.697,8.533 46.49,8.66 46.31,8.82L46.31,11.8C46.31,12.173 46.363,12.427 46.47,12.56C46.577,12.7 46.777,12.77 47.07,12.77C47.103,12.77 47.12,12.797 47.12,12.85C47.12,12.91 47.103,12.94 47.07,12.94C46.823,12.94 46.627,12.933 46.48,12.92L45.67,12.91L44.83,12.92C44.69,12.933 44.497,12.94 44.25,12.94C44.237,12.94 44.23,12.91 44.23,12.85C44.23,12.797 44.237,12.77 44.25,12.77C44.543,12.77 44.743,12.7 44.85,12.56C44.957,12.427 45.01,12.173 45.01,11.8L45.01,4.69C45.01,4.363 44.98,4.13 44.92,3.99C44.86,3.85 44.753,3.78 44.6,3.78C44.473,3.78 44.297,3.83 44.07,3.93L44.06,3.93C44.033,3.93 44.007,3.907 43.98,3.86C43.96,3.807 43.957,3.777 43.97,3.77L46.02,2.8L46.09,2.79C46.137,2.79 46.183,2.81 46.23,2.85C46.283,2.89 46.31,2.93 46.31,2.97L46.31,8.51C46.977,7.743 47.687,7.36 48.44,7.36C48.947,7.36 49.347,7.523 49.64,7.85C49.933,8.17 50.08,8.59 50.08,9.11L50.08,11.8C50.08,12.173 50.133,12.427 50.24,12.56C50.347,12.7 50.543,12.77 50.83,12.77ZM51.63,12.94C51.603,12.94 51.59,12.91 51.59,12.85C51.59,12.797 51.603,12.77 51.63,12.77C51.923,12.77 52.12,12.7 52.22,12.56C52.32,12.427 52.37,12.173 52.37,11.8L52.37,9.3C52.37,8.98 52.34,8.75 52.28,8.61C52.213,8.47 52.103,8.4 51.95,8.4C51.83,8.4 51.66,8.45 51.44,8.55L51.42,8.55C51.387,8.55 51.36,8.527 51.34,8.48C51.32,8.427 51.323,8.397 51.35,8.39L53.47,7.41L53.51,7.39C53.557,7.39 53.603,7.413 53.65,7.46C53.697,7.507 53.72,7.55 53.72,7.59L53.72,7.9C53.7,8.273 53.69,8.73 53.69,9.27L53.69,11.8C53.69,12.173 53.743,12.427 53.85,12.56C53.957,12.7 54.157,12.77 54.45,12.77C54.477,12.77 54.49,12.797 54.49,12.85C54.49,12.91 54.477,12.94 54.45,12.94C54.203,12.94 54.01,12.933 53.87,12.92L53.03,12.91L52.21,12.92C52.07,12.933 51.877,12.94 51.63,12.94ZM52.98,6.01C52.707,6.01 52.497,5.933 52.35,5.78C52.197,5.633 52.12,5.423 52.12,5.15C52.12,4.91 52.197,4.717 52.35,4.57C52.503,4.423 52.713,4.35 52.98,4.35C53.24,4.35 53.44,4.42 53.58,4.56C53.72,4.7 53.79,4.897 53.79,5.15C53.79,5.423 53.72,5.633 53.58,5.78C53.44,5.933 53.24,6.01 52.98,6.01ZM68.19,12.77C68.23,12.777 68.247,12.807 68.24,12.86C68.24,12.913 68.223,12.94 68.19,12.94L65.9,12.94C65.64,12.94 65.19,12.71 64.55,12.25C63.85,12.817 62.96,13.1 61.88,13.1C61.233,13.1 60.693,13.007 60.26,12.82C59.82,12.633 59.493,12.387 59.28,12.08C59.06,11.773 58.95,11.447 58.95,11.1C58.95,10.653 59.107,10.253 59.42,9.9C59.727,9.547 60.193,9.137 60.82,8.67C60.667,8.47 60.52,8.243 60.38,7.99C60.253,7.73 60.153,7.483 60.08,7.25C60.013,7.017 59.98,6.76 59.98,6.48C59.98,5.727 60.22,5.107 60.7,4.62C61.18,4.133 61.833,3.89 62.66,3.89C63.24,3.89 63.7,4.013 64.04,4.26C64.373,4.507 64.54,4.85 64.54,5.29C64.54,5.657 64.433,5.99 64.22,6.29C64.013,6.597 63.773,6.853 63.5,7.06C63.233,7.26 62.813,7.553 62.24,7.94C62.913,8.94 63.853,9.92 65.06,10.88C65.14,10.553 65.18,10.183 65.18,9.77C65.18,9.23 65.093,8.837 64.92,8.59C64.74,8.343 64.45,8.22 64.05,8.22C64.03,8.22 64.02,8.19 64.02,8.13C64.013,8.077 64.023,8.05 64.05,8.05L67.38,8.04C67.407,8.04 67.42,8.067 67.42,8.12C67.42,8.173 67.407,8.2 67.38,8.2C67.1,8.2 66.893,8.23 66.76,8.29C66.627,8.357 66.523,8.46 66.45,8.6C66.383,8.74 66.307,8.963 66.22,9.27C66.12,9.643 66.013,9.983 65.9,10.29C65.787,10.597 65.64,10.897 65.46,11.19C66.067,11.643 66.607,12 67.08,12.26C67.553,12.527 67.923,12.697 68.19,12.77ZM61.29,5.28C61.29,6.007 61.547,6.793 62.06,7.64C62.727,7 63.06,6.317 63.06,5.59C63.06,5.177 62.963,4.853 62.77,4.62C62.577,4.387 62.327,4.27 62.02,4.27C61.76,4.27 61.573,4.353 61.46,4.52C61.347,4.687 61.29,4.94 61.29,5.28ZM62.96,12.42C63.5,12.42 63.947,12.297 64.3,12.05C64.153,11.95 63.953,11.797 63.7,11.59C63.227,11.21 62.75,10.783 62.27,10.31C61.783,9.837 61.36,9.373 61,8.92C60.58,9.36 60.37,9.82 60.37,10.3C60.37,10.667 60.473,11.01 60.68,11.33C60.893,11.657 61.197,11.92 61.59,12.12C61.977,12.32 62.433,12.42 62.96,12.42ZM77.07,13.1C76.043,13.1 75.147,12.907 74.38,12.52C73.613,12.127 73.03,11.59 72.63,10.91C72.23,10.237 72.03,9.483 72.03,8.65C72.03,7.757 72.26,6.957 72.72,6.25C73.187,5.543 73.823,4.997 74.63,4.61C75.437,4.223 76.34,4.03 77.34,4.03C77.773,4.03 78.217,4.067 78.67,4.14C79.117,4.207 79.473,4.297 79.74,4.41C79.827,4.437 79.883,4.473 79.91,4.52C79.93,4.56 79.943,4.63 79.95,4.73L80.14,6.68C80.14,6.707 80.117,6.723 80.07,6.73C80.023,6.743 79.99,6.73 79.97,6.69C79.643,5.97 79.193,5.41 78.62,5.01C78.047,4.61 77.39,4.41 76.65,4.41C75.697,4.41 74.97,4.74 74.47,5.4C73.97,6.067 73.72,6.973 73.72,8.12C73.72,9.047 73.88,9.87 74.2,10.59C74.52,11.317 74.96,11.877 75.52,12.27C76.087,12.67 76.72,12.87 77.42,12.87C77.8,12.87 78.093,12.827 78.3,12.74C78.507,12.653 78.657,12.49 78.75,12.25C78.843,12.01 78.89,11.65 78.89,11.17C78.89,10.683 78.863,10.347 78.81,10.16C78.75,9.967 78.63,9.837 78.45,9.77C78.27,9.703 77.953,9.67 77.5,9.67C77.447,9.67 77.42,9.633 77.42,9.56C77.42,9.533 77.427,9.507 77.44,9.48C77.453,9.46 77.47,9.45 77.49,9.45C78.283,9.497 78.923,9.52 79.41,9.52C79.883,9.52 80.377,9.507 80.89,9.48C80.91,9.48 80.927,9.49 80.94,9.51C80.953,9.537 80.96,9.56 80.96,9.58C80.96,9.64 80.937,9.67 80.89,9.67C80.723,9.663 80.607,9.697 80.54,9.77C80.473,9.837 80.433,9.977 80.42,10.19C80.4,10.397 80.39,10.77 80.39,11.31C80.39,11.73 80.407,12.03 80.44,12.21C80.473,12.383 80.49,12.493 80.49,12.54C80.49,12.6 80.477,12.64 80.45,12.66C80.43,12.673 80.387,12.69 80.32,12.71C79.113,12.97 78.03,13.1 77.07,13.1ZM85.6,7.39C85.813,7.39 86.02,7.467 86.22,7.62C86.42,7.773 86.52,7.96 86.52,8.18C86.52,8.373 86.46,8.533 86.34,8.66C86.22,8.787 86.06,8.85 85.86,8.85C85.72,8.85 85.607,8.82 85.52,8.76C85.433,8.707 85.343,8.623 85.25,8.51C85.163,8.417 85.09,8.35 85.03,8.31C84.97,8.27 84.897,8.25 84.81,8.25C84.717,8.25 84.617,8.283 84.51,8.35C84.403,8.423 84.237,8.57 84.01,8.79L84.01,11.8C84.01,12.173 84.1,12.427 84.28,12.56C84.46,12.7 84.787,12.77 85.26,12.77C85.3,12.77 85.32,12.797 85.32,12.85C85.32,12.91 85.3,12.94 85.26,12.94C84.933,12.94 84.677,12.933 84.49,12.92L83.36,12.91L82.53,12.92C82.39,12.933 82.2,12.94 81.96,12.94C81.927,12.94 81.91,12.91 81.91,12.85C81.91,12.797 81.927,12.77 81.96,12.77C82.247,12.77 82.44,12.7 82.54,12.56C82.647,12.427 82.7,12.173 82.7,11.8L82.7,9.17C82.7,8.883 82.663,8.67 82.59,8.53C82.523,8.397 82.413,8.33 82.26,8.33C82.107,8.33 81.883,8.397 81.59,8.53L81.56,8.53C81.533,8.53 81.513,8.507 81.5,8.46C81.487,8.413 81.49,8.383 81.51,8.37L83.45,7.42C83.51,7.4 83.543,7.39 83.55,7.39C83.657,7.39 83.753,7.487 83.84,7.68C83.927,7.873 83.98,8.133 84,8.46C84.38,8.067 84.693,7.79 84.94,7.63C85.193,7.47 85.413,7.39 85.6,7.39ZM87.26,12.94C87.233,12.94 87.22,12.91 87.22,12.85C87.22,12.797 87.233,12.77 87.26,12.77C87.553,12.77 87.75,12.7 87.85,12.56C87.95,12.427 88,12.173 88,11.8L88,9.3C88,8.98 87.97,8.75 87.91,8.61C87.843,8.47 87.733,8.4 87.58,8.4C87.46,8.4 87.29,8.45 87.07,8.55L87.05,8.55C87.017,8.55 86.99,8.527 86.97,8.48C86.95,8.427 86.953,8.397 86.98,8.39L89.1,7.41L89.14,7.39C89.187,7.39 89.233,7.413 89.28,7.46C89.327,7.507 89.35,7.55 89.35,7.59L89.35,7.9C89.33,8.273 89.32,8.73 89.32,9.27L89.32,11.8C89.32,12.173 89.373,12.427 89.48,12.56C89.587,12.7 89.787,12.77 90.08,12.77C90.107,12.77 90.12,12.797 90.12,12.85C90.12,12.91 90.107,12.94 90.08,12.94C89.833,12.94 89.64,12.933 89.5,12.92L88.66,12.91L87.84,12.92C87.7,12.933 87.507,12.94 87.26,12.94ZM88.61,6.01C88.337,6.01 88.127,5.933 87.98,5.78C87.827,5.633 87.75,5.423 87.75,5.15C87.75,4.91 87.827,4.717 87.98,4.57C88.133,4.423 88.343,4.35 88.61,4.35C88.87,4.35 89.07,4.42 89.21,4.56C89.35,4.7 89.42,4.897 89.42,5.15C89.42,5.423 89.35,5.633 89.21,5.78C89.07,5.933 88.87,6.01 88.61,6.01ZM90.89,12.94C90.87,12.94 90.86,12.91 90.86,12.85C90.86,12.797 90.87,12.77 90.89,12.77C91.177,12.77 91.373,12.7 91.48,12.56C91.587,12.427 91.64,12.173 91.64,11.8L91.66,4.69C91.66,4.363 91.63,4.13 91.57,3.99C91.51,3.85 91.403,3.78 91.25,3.78C91.13,3.78 90.953,3.83 90.72,3.93L90.71,3.93C90.677,3.93 90.65,3.907 90.63,3.86C90.603,3.807 90.6,3.777 90.62,3.77L92.68,2.8L92.74,2.79C92.787,2.79 92.837,2.81 92.89,2.85C92.943,2.89 92.97,2.93 92.97,2.97L92.97,11.8C92.97,12.173 93.023,12.427 93.13,12.56C93.23,12.7 93.427,12.77 93.72,12.77C93.753,12.77 93.77,12.797 93.77,12.85C93.77,12.91 93.753,12.94 93.72,12.94C93.487,12.94 93.3,12.933 93.16,12.92L92.3,12.91L91.46,12.92C91.32,12.933 91.13,12.94 90.89,12.94ZM94.64,12.94C94.62,12.94 94.61,12.91 94.61,12.85C94.61,12.797 94.62,12.77 94.64,12.77C94.927,12.77 95.123,12.7 95.23,12.56C95.343,12.427 95.4,12.173 95.4,11.8L95.41,4.69C95.41,4.363 95.38,4.13 95.32,3.99C95.26,3.85 95.153,3.78 95,3.78C94.88,3.78 94.703,3.83 94.47,3.93L94.46,3.93C94.433,3.93 94.407,3.907 94.38,3.86C94.36,3.807 94.357,3.777 94.37,3.77L96.43,2.8L96.49,2.79C96.537,2.79 96.587,2.81 96.64,2.85C96.7,2.89 96.73,2.93 96.73,2.97L96.73,11.8C96.73,12.173 96.78,12.427 96.88,12.56C96.98,12.7 97.177,12.77 97.47,12.77C97.503,12.77 97.52,12.797 97.52,12.85C97.52,12.91 97.503,12.94 97.47,12.94C97.237,12.94 97.05,12.933 96.91,12.92L96.05,12.91L95.21,12.92C95.07,12.933 94.88,12.94 94.64,12.94Z" style="fill:white;fill-rule:nonzero;"/>
            </g>
            <g id="bb6a8818-7f5e-4a02-84ff-7f2d77a343ab" transform="matrix(0.33858,0,0,0.491729,31.8697,126.305)">
                <path d="M41.3,50C41.3,50 44.6,46.1 46.3,46.3C46.3,46.3 46.8,46.2 47.2,47C47.5,47.8 48,48.2 48.4,48C48.8,47.8 48.3,46.3 48.3,46.3C48.3,46.3 47.6,44.6 46.7,45C45.8,45.4 44.2,46.2 42.2,48.2C40.2,50.2 40.7,50.3 40.7,50.3C40.7,50.3 40.8,50.5 41.3,50ZM57.8,50C57.8,50 54.5,46.1 52.8,46.3C52.8,46.3 52.3,46.2 51.9,47C51.6,47.8 51.1,48.2 50.7,48C50.3,47.8 50.8,46.3 50.8,46.3C50.8,46.3 51.5,44.6 52.4,45C53.3,45.4 54.9,46.2 56.9,48.2C58.9,50.2 58.4,50.3 58.4,50.3C58.4,50.3 58.3,50.5 57.8,50ZM49.6,52.2C49.6,52.2 46.9,51.8 43.4,52.9C43.4,52.9 41,54 40.4,54.7C39.8,55.4 39.4,57.6 36.9,56.6C36.9,56.6 34.8,54.9 37.5,52.9C40.2,50.9 45.6,50.8 45.6,50.8C45.6,50.8 51.8,50.4 55.1,50.8C58.5,51.2 62.4,52.1 62.4,54.7C62.4,56.4 60.4,56.3 59.2,55.7C58,55.1 58.6,54.6 57.7,54.1C56.9,53.6 52.9,52.2 49.6,52.2ZM37.9,43.4C34,43.4 30.9,40.3 30.9,36.4C30.9,32.5 34,29.4 37.9,29.4C41.8,29.4 44.9,32.5 44.9,36.4C44.9,40.3 41.8,43.4 37.9,43.4ZM37.9,31C35,31 32.6,33.4 32.6,36.3C32.6,39.2 35,41.6 37.9,41.6C40.8,41.6 43.2,39.2 43.2,36.3C43.2,33.4 40.9,31 37.9,31ZM61.6,43.4C57.7,43.4 54.6,40.3 54.6,36.4C54.6,32.5 57.7,29.4 61.6,29.4C65.5,29.4 68.6,32.5 68.6,36.4C68.6,40.3 65.5,43.4 61.6,43.4ZM61.6,31C58.7,31 56.3,33.4 56.3,36.3C56.3,39.2 58.7,41.6 61.6,41.6C64.5,41.6 66.9,39.2 66.9,36.3C66.9,33.4 64.5,31 61.6,31Z" style="fill:rgb(210,21,37);fill-rule:nonzero;"/>
                <path d="M85.5,29.8C73.2,4 50.7,5 50.7,5C50.7,5 22.6,3 11.3,38.1C-0.2,74.2 23.3,92 23.3,92C29.7,96.5 41.1,94.2 47.8,93.9C53.1,93.7 55.1,94.9 65.1,94.9C78.5,94.9 85.5,80.8 85.5,80.8C85.5,80.8 99.8,59.9 85.5,29.8ZM26.8,74.6C27.3,81.1 25.2,81.7 24.3,81.9C23.4,82.1 20.3,79.9 22.2,73.7C24.1,67.6 27.8,65.9 27.8,65.9C27.8,65.9 26.3,68 26.8,74.6ZM37.1,86.1C36,86.5 32.1,84.4 33.3,76.9C34.5,69.5 38.6,66.9 38.6,66.9C38.6,66.9 37.1,69.7 38.8,77.2C40.5,84.7 38.2,85.8 37.1,86.1ZM49.5,87.8C44.9,86.8 45.8,78.6 45.8,78.6C47,67.8 49.5,64.8 49.5,64.8C49.5,64.8 52.7,69 53.5,78.1C54.3,87.2 49.5,87.8 49.5,87.8ZM63.5,86.1C62.4,85.7 60.1,84.7 61.8,77.2C63.5,69.7 62,67 62,67C62,67 66.1,69.6 67.3,77C68.4,84.4 64.5,86.5 63.5,86.1ZM76.2,81.9C75.3,81.7 73.2,81.1 73.7,74.6C74.2,68.1 72.6,65.9 72.6,65.9C72.6,65.9 76.4,67.6 78.2,73.7C80.2,79.8 77.2,82 76.2,81.9ZM80.7,57.1C78.9,59.6 76,60.7 72.2,60.6C56.5,60 51.3,60.6 51.2,60.6L51,60.6C50.9,60.6 43.6,60 27.9,60.6C24,60.7 21.2,59.6 19.4,57.1C14.7,50.6 19.5,37.5 19.7,36.9C27.5,17.7 41.9,20 48,21C48.9,21.1 49.6,21.3 50,21.3C50.4,21.3 51.1,21.2 51.8,21C57.4,20 72.4,17.4 80.3,36.9C80.6,37.5 85.4,50.6 80.7,57.1Z" style="fill:rgb(210,21,37);fill-rule:nonzero;"/>
                <path d="M75,33.7C74.1,31.8 72.1,27.8 66.4,26C63.1,25 60.1,26.2 57.9,27.6C57.8,27.7 57.7,27.7 57.6,27.8C56.6,28.4 53.8,30 51,29.7C52.6,28.3 53.2,26.1 53.2,26.1C52.2,28 50.9,29 49.6,29.4C48.3,28.9 47,27.9 46,26.1C46,26.1 46.6,28.3 48.2,29.7C45.4,30 42.7,28.5 41.7,27.9C39.5,26.4 36.3,24.9 32.8,26C27.1,27.8 25,31.8 24.2,33.7C24.2,33.7 22.8,36.9 24.8,37.8C27.3,38.9 28.9,36.6 29.1,35.5C29.5,33.9 28.6,30.1 32.7,28.2C34.4,27.4 36.5,26.8 40.8,28.5C40.9,28.5 40.9,28.6 41,28.6C41.4,28.7 41.8,28.9 42.2,29.1C44,30 45.6,31.3 48.4,30.9L49.6,30.6C50,30.8 50.3,30.9 50.8,30.9C53.5,31.2 55.1,30.1 56.9,29.2C62.3,26.7 64.7,27.4 66.6,28.3C70.7,30.2 69.8,34 70.2,35.6C70.4,36.6 72,39 74.5,37.9C76.4,36.9 75,33.7 75,33.7ZM55.4,45.3C55.4,45.3 61.3,47.2 66.2,42.8C72,37.5 78.9,39.9 79.8,47.2C80.7,54.5 75.7,57.3 72.3,56.8C68.9,56.3 65.3,53.3 65.3,53.3C65.3,53.3 74.3,55.5 75.8,50.5C77.3,45.5 74.1,43.1 72.2,44.1C70.3,45.1 67.5,48.2 63.9,48.1C59.2,48.1 55.4,45.3 55.4,45.3ZM44.2,45.3C44.2,45.3 38.3,47.2 33.4,42.8C27.6,37.5 20.7,39.9 19.8,47.2C18.9,54.5 23.9,57.3 27.3,56.8C30.7,56.3 34.3,53.3 34.3,53.3C34.3,53.3 25.3,55.5 23.8,50.5C22.3,45.5 25.5,43.1 27.4,44.1C29.3,45 32.1,48.2 35.7,48.1C40.4,48.1 44.2,45.3 44.2,45.3Z" style="fill:rgb(210,21,37);fill-rule:nonzero;"/>
            </g>
        </g>
    </g>
</svg>
